<svg version="1.1" xmlns="http://www.w3.org/2000/svg" viewBox="0 0 1465.7232912245945 711.6666666666665" width="1465.7232912245945" height="711.6666666666665" filter="invert(93%) hue-rotate(180deg)">
  <!-- svg-source:excalidraw -->
  
  <defs>
    <style class="style-fonts">
      @font-face {
        font-family: "Virgil";
        src: url("https://excalidraw.com/Virgil.woff2");
      }
      @font-face {
        font-family: "Cascadia";
        src: url("https://excalidraw.com/Cascadia.woff2");
      }
      @font-face {
        font-family: "Assistant";
        src: url("https://excalidraw.com/Assistant-Regular.woff2");
      }
    </style>
    
  </defs>
  <g stroke-linecap="round" transform="translate(113.3081663454891 338.6040888889994) rotate(0 98.0830789186951 47)"><path d="M23.5 0 C62.31 -0.51, 101.23 1.02, 172.67 0 M23.5 0 C59.26 -0.01, 95.64 0.8, 172.67 0 M172.67 0 C187.42 -0.45, 197.69 6.89, 196.17 23.5 M172.67 0 C188.5 -1.11, 197.72 6.73, 196.17 23.5 M196.17 23.5 C195.4 37.17, 195.7 51.95, 196.17 70.5 M196.17 23.5 C195.66 35.45, 196.46 49.16, 196.17 70.5 M196.17 70.5 C195.88 85.11, 187.42 93.02, 172.67 94 M196.17 70.5 C194.66 84.88, 190.21 93.69, 172.67 94 M172.67 94 C127.25 95.66, 77.84 94.66, 23.5 94 M172.67 94 C113.48 92.1, 54.79 93.2, 23.5 94 M23.5 94 C8.19 94.63, -1 88.03, 0 70.5 M23.5 94 C8.45 94.4, -0.24 84.95, 0 70.5 M0 70.5 C1 58.48, -0.32 44.95, 0 23.5 M0 70.5 C0.69 56.79, 1.09 43.77, 0 23.5 M0 23.5 C1.35 6.13, 6.19 -1.91, 23.5 0 M0 23.5 C2.22 9.44, 7.24 -1.36, 23.5 0" stroke="#1e1e1e" stroke-width="2" fill="none"></path></g><g transform="translate(133.90124740041466 374.1040888889994) rotate(0 77.48999786376953 11.5)"><text x="77.48999786376953" y="0" font-family="Helvetica, Segoe UI Emoji" font-size="20px" fill="#1e1e1e" text-anchor="middle" style="white-space: pre;" direction="ltr" dominant-baseline="text-before-edge">Shadow Mapping</text></g><g stroke-linecap="round" transform="translate(421.83611071854455 338.10911987128156) rotate(0 97.0830789186951 45)"><path d="M22.5 0 C63.16 -1.28, 103.54 -1.79, 171.67 0 M22.5 0 C77.22 1.27, 130.62 0.74, 171.67 0 M171.67 0 C185.29 -1.57, 192.3 7.6, 194.17 22.5 M171.67 0 C186.7 -0.21, 194.84 5.24, 194.17 22.5 M194.17 22.5 C195.25 36.6, 192.37 45.83, 194.17 67.5 M194.17 22.5 C194.81 38.31, 193.39 53.67, 194.17 67.5 M194.17 67.5 C193.06 83.11, 188.58 91.25, 171.67 90 M194.17 67.5 C195.65 81.12, 188.83 89.24, 171.67 90 M171.67 90 C142.28 89.69, 112.19 88.05, 22.5 90 M171.67 90 C135.72 92.07, 101.47 91.28, 22.5 90 M22.5 90 C8.15 91.97, 0.57 81.81, 0 67.5 M22.5 90 C6.67 90.87, 0.27 83.51, 0 67.5 M0 67.5 C-0.85 51.88, -0.19 35.66, 0 22.5 M0 67.5 C-0.34 56.2, -0.8 44.9, 0 22.5 M0 22.5 C-0.4 5.61, 5.56 0.61, 22.5 0 M0 22.5 C-1.32 8.61, 7.64 -0.86, 22.5 0" stroke="#1e1e1e" stroke-width="2" fill="none"></path></g><g transform="translate(466.1691896372396 371.60911987128156) rotate(0 52.75 11.5)"><text x="52.75" y="0" font-family="Helvetica, Segoe UI Emoji" font-size="20px" fill="#1e1e1e" text-anchor="middle" style="white-space: pre;" direction="ltr" dominant-baseline="text-before-edge">Voxelization</text></g><g stroke-linecap="round" transform="translate(741.2917119183847 340.2188977727159) rotate(0 94.7054038160237 43.5)"><path d="M21.75 0 C58.69 -0.24, 97.77 0.04, 167.66 0 M21.75 0 C60.82 -0.66, 99.16 -0.33, 167.66 0 M167.66 0 C180.52 -1.55, 188.01 6.69, 189.41 21.75 M167.66 0 C182.63 -1.77, 190.96 8.88, 189.41 21.75 M189.41 21.75 C189.09 37.74, 190.99 50.89, 189.41 65.25 M189.41 21.75 C189.99 33.49, 189.58 43.33, 189.41 65.25 M189.41 65.25 C189.86 78.81, 181.14 85.27, 167.66 87 M189.41 65.25 C190.36 80.76, 181.72 85.72, 167.66 87 M167.66 87 C116.31 87.74, 62.62 85.23, 21.75 87 M167.66 87 C124.1 87.85, 80 87.63, 21.75 87 M21.75 87 C6.55 88.9, -0.55 79.67, 0 65.25 M21.75 87 C6.79 87.56, -0.58 80.49, 0 65.25 M0 65.25 C-1.12 54.98, 0.02 44.44, 0 21.75 M0 65.25 C0.2 49.48, -0.35 33.55, 0 21.75 M0 21.75 C1.28 7.46, 5.35 0.81, 21.75 0 M0 21.75 C-0.89 6.32, 5.64 -1.84, 21.75 0" stroke="#1e1e1e" stroke-width="2" fill="none"></path></g><g transform="translate(776.6471172602874 372.2188977727159) rotate(0 59.34999847412115 11.5)"><text x="59.349998474121094" y="0" font-family="Helvetica, Segoe UI Emoji" font-size="20px" fill="#1e1e1e" text-anchor="middle" style="white-space: pre;" direction="ltr" dominant-baseline="text-before-edge">Cone Tracing</text></g><g stroke-linecap="round"><g transform="translate(310.4743241828793 381.5176281641638) rotate(0 54.81908706443812 -0.8814307964621833)"><path d="M0.68 0.83 C19.09 0.62, 91.31 -1.56, 109.56 -1.83 M-0.42 0.22 C17.9 0.26, 90.21 0.14, 108.57 -0.33" stroke="#1e1e1e" stroke-width="2" fill="none"></path></g><g transform="translate(310.4743241828793 381.5176281641638) rotate(0 54.81908706443812 -0.8814307964621833)"><path d="M85.18 8.5 C91.89 6.24, 95.68 5.29, 108.57 -0.33 M85.18 8.5 C93.7 6.18, 103.48 1.24, 108.57 -0.33" stroke="#1e1e1e" stroke-width="2" fill="none"></path></g><g transform="translate(310.4743241828793 381.5176281641638) rotate(0 54.81908706443812 -0.8814307964621833)"><path d="M84.98 -8.6 C91.64 -7, 95.48 -4.08, 108.57 -0.33 M84.98 -8.6 C93.72 -4.4, 103.58 -2.83, 108.57 -0.33" stroke="#1e1e1e" stroke-width="2" fill="none"></path></g></g><mask></mask><g stroke-linecap="round"><g transform="translate(617.7622588087951 380.12301312988706) rotate(0 60.759125879546104 0.6273920594136939)"><path d="M-0.52 -0.94 C19.71 -0.81, 100.74 0, 121.17 0.2 M1.4 1.19 C21.47 1.48, 100 1.2, 120.04 1.19" stroke="#1e1e1e" stroke-width="2" fill="none"></path></g><g transform="translate(617.7622588087951 380.12301312988706) rotate(0 60.759125879546104 0.6273920594136939)"><path d="M96.56 9.78 C101.62 6.89, 108 5.98, 120.04 1.19 M96.56 9.78 C101.15 7.64, 106.46 6.67, 120.04 1.19" stroke="#1e1e1e" stroke-width="2" fill="none"></path></g><g transform="translate(617.7622588087951 380.12301312988706) rotate(0 60.759125879546104 0.6273920594136939)"><path d="M96.53 -7.32 C101.51 -5.42, 107.91 -1.53, 120.04 1.19 M96.53 -7.32 C100.98 -5.71, 106.29 -2.93, 120.04 1.19" stroke="#1e1e1e" stroke-width="2" fill="none"></path></g></g><mask></mask><g stroke-linecap="round"><g transform="translate(10.716377024725091 383.7605266111645) rotate(0 50.69339901183409 0.027861109722991273)"><path d="M0.49 0.32 C17.42 0.67, 83.75 1.3, 100.72 1.22 M-0.72 -0.56 C16.69 -0.44, 85.95 -0.55, 103.08 -0.3" stroke="#1e1e1e" stroke-width="2" fill="none"></path></g><g transform="translate(10.716377024725091 383.7605266111645) rotate(0 50.69339901183409 0.027861109722991273)"><path d="M79.54 8.13 C85.47 5.01, 92.2 5.78, 103.08 -0.3 M79.54 8.13 C85.3 6.43, 92.7 3.2, 103.08 -0.3" stroke="#1e1e1e" stroke-width="2" fill="none"></path></g><g transform="translate(10.716377024725091 383.7605266111645) rotate(0 50.69339901183409 0.027861109722991273)"><path d="M79.64 -8.98 C85.42 -8.22, 92.13 -3.57, 103.08 -0.3 M79.64 -8.98 C85.47 -5.9, 92.85 -4.36, 103.08 -0.3" stroke="#1e1e1e" stroke-width="2" fill="none"></path></g></g><mask></mask><g stroke-linecap="round" transform="translate(1308.7195397817027 463.7871135605578) rotate(0.24220953175387588 73.50220410161307 56)"><path d="M8.32 50.95 C8.32 50.95, 8.32 50.95, 8.32 50.95 M8.32 50.95 C8.32 50.95, 8.32 50.95, 8.32 50.95 M8.45 63 C15.79 53.94, 23.61 47.03, 39.94 26.77 M8.45 63 C16.09 54.21, 24.88 44.47, 39.94 26.77 M14.49 68.24 C27.04 52.21, 42.24 37.89, 68.94 5.6 M14.49 68.24 C34.16 47.04, 51.25 25.81, 68.94 5.6 M21.18 72.74 C40.89 50.34, 64.37 26.81, 79.57 5.57 M21.18 72.74 C35.96 55.29, 51.34 39.14, 79.57 5.57 M27.22 77.99 C48.26 51.92, 69.57 28.76, 86.26 10.06 M27.22 77.99 C41.8 61.21, 55.03 45.71, 86.26 10.06 M33.91 82.48 C49.84 61.26, 69.75 42.38, 92.96 14.56 M33.91 82.48 C47.32 66.82, 61.16 49.84, 92.96 14.56 M40.61 86.97 C63.86 60.46, 85.96 37.5, 99 19.8 M40.61 86.97 C55.05 72.22, 68.26 55.81, 99 19.8 M47.3 91.47 C70.84 64.43, 90.58 38.84, 105.69 24.3 M47.3 91.47 C68.04 67.05, 89.38 44.38, 105.69 24.3 M53.34 96.72 C65.1 81.84, 78.96 65.71, 111.73 29.55 M53.34 96.72 C74.8 72.88, 95.38 47.89, 111.73 29.55 M60.03 101.21 C81.63 73.78, 103.73 46.81, 117.76 34.8 M60.03 101.21 C80.26 77.57, 101.25 52.53, 117.76 34.8 M66.73 105.7 C82.45 91.05, 94.83 75.43, 124.46 39.29 M66.73 105.7 C83.76 86.36, 101.96 66.27, 124.46 39.29 M74.73 108.69 C84.43 96.33, 97.15 82.19, 130.5 44.54 M74.73 108.69 C90.76 89.32, 107.65 72, 130.5 44.54 M97.17 95.07 C107.89 83.88, 118.36 73.55, 136.53 49.79 M97.17 95.07 C108.29 83.19, 118.88 68.87, 136.53 49.79 M126.83 73.15 C132.77 68.8, 135.73 61.64, 141.92 55.79 M126.83 73.15 C132.5 65.92, 138.91 60.39, 141.92 55.79" stroke="#a5d8ff" stroke-width="1" fill="none"></path><path d="M92.5 14.25 C107.41 23.54, 119.57 35.55, 128.5 42.75 M92.5 14.25 C99.31 19.92, 107.42 26.77, 128.5 42.75 M128.5 42.75 C145.22 57.24, 147.97 58.97, 128.5 71.25 M128.5 42.75 C145.19 55.6, 146.46 55.96, 128.5 71.25 M128.5 71.25 C117.09 82.38, 104.3 90.57, 92.5 97.75 M128.5 71.25 C120.37 77.23, 112.21 83.96, 92.5 97.75 M92.5 97.75 C72.32 111.86, 74.88 113.49, 55.5 97.75 M92.5 97.75 C74.81 112.18, 73.06 109.84, 55.5 97.75 M55.5 97.75 C48.89 92.9, 40.88 86.82, 18.5 71.25 M55.5 97.75 C44.3 89.52, 32.63 81.7, 18.5 71.25 M18.5 71.25 C-1.25 56.71, 1.28 57.38, 18.5 42.75 M18.5 71.25 C-0.56 58.05, -1.98 58.71, 18.5 42.75 M18.5 42.75 C33.59 31.92, 47.94 20.6, 55.5 14.25 M18.5 42.75 C27.06 34.89, 37.13 27.38, 55.5 14.25 M55.5 14.25 C74.77 0.66, 75.97 -1.44, 92.5 14.25 M55.5 14.25 C73.47 -1.5, 72.46 1.44, 92.5 14.25" stroke="#1e1e1e" stroke-width="2" fill="none"></path></g><g transform="translate(1350.7909543325095 496.7871135605578) rotate(0.24220953175387588 31.6796875 23)"><text x="31.6796875" y="0" font-family="Helvetica, Segoe UI Emoji" font-size="20px" fill="#1e1e1e" text-anchor="middle" style="white-space: pre;" direction="ltr" dominant-baseline="text-before-edge">Object </text><text x="31.6796875" y="23" font-family="Helvetica, Segoe UI Emoji" font-size="20px" fill="#1e1e1e" text-anchor="middle" style="white-space: pre;" direction="ltr" dominant-baseline="text-before-edge">moved</text></g><g stroke-linecap="round" transform="translate(1202.0602240651451 115.58566226050556) rotate(0 89.53628942518753 79)"><path d="M7.79 74.35 C7.79 74.35, 7.79 74.35, 7.79 74.35 M7.79 74.35 C7.79 74.35, 7.79 74.35, 7.79 74.35 M7.92 86.39 C24.02 67.87, 40.12 49.35, 56.47 30.54 M7.92 86.39 C18.89 73.78, 29.86 61.16, 56.47 30.54 M13.96 91.64 C32.88 69.87, 51.8 48.11, 88.75 5.6 M13.96 91.64 C42.4 58.93, 70.83 26.21, 88.75 5.6 M20 96.89 C49.05 63.47, 78.11 30.04, 97.42 7.83 M20 96.89 C42.02 71.56, 64.04 46.23, 97.42 7.83 M25.38 102.89 C52.87 71.27, 80.36 39.65, 104.11 12.32 M25.38 102.89 C56.15 67.49, 86.92 32.09, 104.11 12.32 M31.42 108.14 C61.79 73.2, 92.16 38.27, 110.15 17.57 M31.42 108.14 C62.58 72.29, 93.75 36.44, 110.15 17.57 M38.11 112.63 C67.2 79.17, 96.28 45.72, 116.18 22.82 M38.11 112.63 C59.52 88, 80.93 63.37, 116.18 22.82 M44.15 117.88 C66.52 92.15, 88.88 66.42, 121.57 28.82 M44.15 117.88 C60.68 98.86, 77.22 79.84, 121.57 28.82 M50.19 123.13 C75.09 94.48, 100 65.83, 127.6 34.07 M50.19 123.13 C69.43 100.99, 88.67 78.86, 127.6 34.07 M56.23 128.38 C77.98 103.36, 99.73 78.34, 133.64 39.32 M56.23 128.38 C86.85 93.15, 117.47 57.92, 133.64 39.32 M62.26 133.63 C86.69 105.53, 111.11 77.44, 139.68 44.57 M62.26 133.63 C84.47 108.09, 106.67 82.54, 139.68 44.57 M68.3 138.87 C93.73 109.62, 119.15 80.38, 145.72 49.82 M68.3 138.87 C91.89 111.74, 115.48 84.6, 145.72 49.82 M74.34 144.12 C97.03 118.02, 119.71 91.92, 151.75 55.07 M74.34 144.12 C91.1 124.84, 107.86 105.56, 151.75 55.07 M81.03 148.62 C101.44 125.14, 121.85 101.66, 157.14 61.07 M81.03 148.62 C104.5 121.62, 127.97 94.62, 157.14 61.07 M88.38 152.36 C111.86 125.34, 135.35 98.33, 163.17 66.32 M88.38 152.36 C104.84 133.42, 121.3 114.49, 163.17 66.32 M105.57 144.77 C125.13 122.27, 144.7 99.77, 169.21 71.57 M105.57 144.77 C123.32 124.36, 141.06 103.95, 169.21 71.57 M149.01 107 C155.27 99.8, 161.53 92.6, 173.28 79.08 M149.01 107 C157.12 97.67, 165.24 88.33, 173.28 79.08" stroke="#a5d8ff" stroke-width="1" fill="none"></path><path d="M112.5 20 C129.59 35.51, 146.67 51.02, 156.57 60 M112.5 20 C122.65 29.22, 132.81 38.43, 156.57 60 M156.57 60 C179.07 80, 179.07 80, 156.57 100 M156.57 60 C179.07 80, 179.07 80, 156.57 100 M156.57 100 C144.72 110.22, 132.87 120.43, 112.5 138 M156.57 100 C145.56 109.49, 134.55 118.99, 112.5 138 M112.5 138 C90 158, 90 158, 67.5 138 M112.5 138 C90 158, 90 158, 67.5 138 M67.5 138 C53.69 126.33, 39.87 114.67, 22.5 100 M67.5 138 C55.82 128.14, 44.15 118.28, 22.5 100 M22.5 100 C0 80, 0 80, 22.5 60 M22.5 100 C0 80, 0 80, 22.5 60 M22.5 60 C33.34 50.37, 44.17 40.74, 67.5 20 M22.5 60 C37.5 46.66, 52.51 33.33, 67.5 20 M67.5 20 C90 0, 90 0, 112.5 20 M67.5 20 C90 0, 90 0, 112.5 20" stroke="#1e1e1e" stroke-width="2" fill="none"></path></g><g transform="translate(1253.5383678622115 160.08566226050556) rotate(0 38.290000915527344 34.5)"><text x="38.290000915527344" y="0" font-family="Helvetica, Segoe UI Emoji" font-size="20px" fill="#1e1e1e" text-anchor="middle" style="white-space: pre;" direction="ltr" dominant-baseline="text-before-edge">Material </text><text x="38.290000915527344" y="23" font-family="Helvetica, Segoe UI Emoji" font-size="20px" fill="#1e1e1e" text-anchor="middle" style="white-space: pre;" direction="ltr" dominant-baseline="text-before-edge">property</text><text x="38.290000915527344" y="46" font-family="Helvetica, Segoe UI Emoji" font-size="20px" fill="#1e1e1e" text-anchor="middle" style="white-space: pre;" direction="ltr" dominant-baseline="text-before-edge">updated</text></g><g stroke-linecap="round" transform="translate(896.2308490530173 455.95659138489634) rotate(0 89.13367158766778 56)"><path d="M6.4 54.59 C6.4 54.59, 6.4 54.59, 6.4 54.59 M6.4 54.59 C6.4 54.59, 6.4 54.59, 6.4 54.59 M9.82 62.86 C18.68 52.66, 27.55 42.46, 32.78 36.44 M9.82 62.86 C17.82 53.65, 25.83 44.44, 32.78 36.44 M16.51 67.35 C26.61 55.73, 36.71 44.12, 56.53 21.31 M16.51 67.35 C27.51 54.7, 38.51 42.05, 56.53 21.31 M23.2 71.85 C41.19 51.15, 59.18 30.46, 77.66 9.21 M23.2 71.85 C39.1 53.56, 54.99 35.28, 77.66 9.21 M29.9 76.34 C54.33 48.23, 78.77 20.12, 92.88 3.89 M29.9 76.34 C53.32 49.39, 76.75 22.44, 92.88 3.89 M37.25 80.08 C53.73 61.12, 70.21 42.15, 100.88 6.87 M37.25 80.08 C62.18 51.39, 87.12 22.71, 100.88 6.87 M43.94 84.57 C67.96 56.94, 91.99 29.3, 107.58 11.37 M43.94 84.57 C59.73 66.41, 75.51 48.26, 107.58 11.37 M51.29 88.31 C64.65 72.94, 78.02 57.56, 114.27 15.86 M51.29 88.31 C68.48 68.54, 85.67 48.76, 114.27 15.86 M57.98 92.81 C70.63 78.25, 83.28 63.7, 120.97 20.35 M57.98 92.81 C80.03 67.44, 102.08 42.08, 120.97 20.35 M65.33 96.54 C89.31 68.97, 113.28 41.39, 127.66 24.85 M65.33 96.54 C85.89 72.9, 106.45 49.25, 127.66 24.85 M72.03 101.04 C93.61 76.21, 115.19 51.39, 135.01 28.59 M72.03 101.04 C93.77 76.02, 115.52 51.01, 135.01 28.59 M79.38 104.78 C93.46 88.58, 107.54 72.38, 141.7 33.08 M79.38 104.78 C93.56 88.47, 107.74 72.16, 141.7 33.08 M87.38 107.76 C105.21 87.25, 123.04 66.74, 148.4 37.57 M87.38 107.76 C100.89 92.22, 114.4 76.69, 148.4 37.57 M99.33 106.22 C118.29 84.4, 137.26 62.58, 155.09 42.07 M99.33 106.22 C110.55 93.31, 121.76 80.4, 155.09 42.07 M122.42 91.84 C132.01 80.81, 141.6 69.78, 161.78 46.56 M122.42 91.84 C137.63 74.35, 152.83 56.86, 161.78 46.56 M145.52 77.47 C154.38 67.27, 163.25 57.07, 168.48 51.05 M145.52 77.47 C153.7 68.05, 161.89 58.63, 168.48 51.05 M167.3 64.61 C169.63 61.92, 171.97 59.23, 173.2 57.81 M167.3 64.61 C169.47 62.1, 171.65 59.6, 173.2 57.81" stroke="#a5d8ff" stroke-width="1" fill="none"></path><path d="M112.5 14.25 C128.11 24.53, 143.71 34.81, 155.77 42.75 M112.5 14.25 C128.28 24.64, 144.05 35.03, 155.77 42.75 M155.77 42.75 C178.27 57, 178.27 57, 155.77 71.25 M155.77 42.75 C178.27 57, 178.27 57, 155.77 71.25 M155.77 71.25 C145.18 77.74, 134.59 84.22, 112.5 97.75 M155.77 71.25 C139.82 81.01, 123.88 90.78, 112.5 97.75 M112.5 97.75 C90 112, 90 112, 67.5 97.75 M112.5 97.75 C90 112, 90 112, 67.5 97.75 M67.5 97.75 C58.33 92.35, 49.17 86.95, 22.5 71.25 M67.5 97.75 C56.4 91.21, 45.3 84.68, 22.5 71.25 M22.5 71.25 C0 57, 0 57, 22.5 42.75 M22.5 71.25 C0 57, 0 57, 22.5 42.75 M22.5 42.75 C38.18 32.82, 53.87 22.88, 67.5 14.25 M22.5 42.75 C38.93 32.35, 55.35 21.94, 67.5 14.25 M67.5 14.25 C90 0, 90 0, 112.5 14.25 M67.5 14.25 C90 0, 90 0, 112.5 14.25" stroke="#1e1e1e" stroke-width="2" fill="none"></path></g><g transform="translate(949.2576839313239 488.95659138489634) rotate(0 36.040000915527344 23)"><text x="36.040000915527344" y="0" font-family="Helvetica, Segoe UI Emoji" font-size="20px" fill="#1e1e1e" text-anchor="middle" style="white-space: pre;" direction="ltr" dominant-baseline="text-before-edge">View </text><text x="36.040000915527344" y="23" font-family="Helvetica, Segoe UI Emoji" font-size="20px" fill="#1e1e1e" text-anchor="middle" style="white-space: pre;" direction="ltr" dominant-baseline="text-before-edge">updated</text></g><g stroke-linecap="round" transform="translate(1086.3064308166968 439.5893990218095) rotate(0 100.5 79)"><path d="M6.36 78.4 C6.36 78.4, 6.36 78.4, 6.36 78.4 M6.36 78.4 C6.36 78.4, 6.36 78.4, 6.36 78.4 M9.77 86.67 C21.68 74.18, 35.04 57.37, 45.86 45.16 M9.77 86.67 C23.92 69.83, 38.29 52.63, 45.86 45.16 M15.81 91.92 C36.28 71.44, 57.7 48.48, 78.79 19.47 M15.81 91.92 C38.29 66.2, 60.29 42.01, 78.79 19.47 M21.85 97.17 C43.47 73.68, 60.56 51.53, 101.23 5.85 M21.85 97.17 C47.91 66.8, 75.51 35.76, 101.23 5.85 M28.54 101.66 C54.28 70.5, 84.98 38.81, 109.24 8.83 M28.54 101.66 C58.54 67.16, 88.37 31.8, 109.24 8.83 M34.58 106.91 C64 70.43, 94.44 37.16, 115.93 13.33 M34.58 106.91 C58.4 80.58, 81.32 54.91, 115.93 13.33 M41.27 111.4 C74.06 74.2, 101.61 40.96, 122.62 17.82 M41.27 111.4 C72.02 76.24, 103.48 39.86, 122.62 17.82 M47.31 116.65 C71.14 91.11, 96.05 59.75, 129.32 22.31 M47.31 116.65 C65.69 96.44, 83.72 77.57, 129.32 22.31 M54 121.15 C73.88 95.56, 96.98 73.13, 135.35 27.56 M54 121.15 C82.89 87.52, 111.07 56.87, 135.35 27.56 M60.04 126.39 C81.09 100.42, 102.35 79.5, 141.39 32.81 M60.04 126.39 C88.56 93.68, 117.63 60.68, 141.39 32.81 M66.74 130.89 C95.93 96.97, 126.83 62.84, 148.09 37.3 M66.74 130.89 C97.79 94.82, 129.76 59.54, 148.09 37.3 M72.77 136.14 C96.49 110.78, 115.74 84.02, 154.12 42.55 M72.77 136.14 C103.32 99.38, 136.89 61.64, 154.12 42.55 M79.47 140.63 C102.8 113.78, 124.49 87.03, 160.16 47.8 M79.47 140.63 C102.49 114.22, 124.23 90.13, 160.16 47.8 M85.5 145.88 C102.27 125.99, 122.58 104.36, 166.86 52.29 M85.5 145.88 C107.64 121.12, 130.26 96.33, 166.86 52.29 M92.85 149.62 C117.43 122.97, 143.54 91.48, 172.89 57.54 M92.85 149.62 C120.27 118.21, 149.59 85.62, 172.89 57.54 M100.86 152.6 C131.29 118.72, 159.2 81.99, 178.93 62.79 M100.86 152.6 C133.55 118.33, 164.27 81.08, 178.93 62.79 M118.71 144.27 C143.89 113.89, 171.37 83.13, 184.97 68.04 M118.71 144.27 C131.79 129.9, 144.93 114.44, 184.97 68.04 M150.99 119.33 C163.02 108.2, 172.12 95.25, 191.01 73.29 M150.99 119.33 C159.35 109.62, 168.77 101.06, 191.01 73.29 M183.92 93.63 C189.3 87.87, 192.52 84.37, 194.42 81.56 M183.92 93.63 C187.35 88.71, 192.11 84.6, 194.42 81.56" stroke="#a5d8ff" stroke-width="1" fill="none"></path><path d="M126.25 20 C136.98 29.73, 149.2 40.47, 175.75 60 M126.25 20 C143.04 34.22, 160.66 48.33, 175.75 60 M175.75 60 C202.31 80.63, 202.22 80.04, 175.75 100 M175.75 60 C200.03 80.41, 203.28 81.2, 175.75 100 M175.75 100 C158.91 111.07, 144.62 123.37, 126.25 138 M175.75 100 C156.98 114.23, 138.22 129.75, 126.25 138 M126.25 138 C102.12 158.02, 99.53 160, 75.75 138 M126.25 138 C101.4 158.46, 100.86 159.77, 75.75 138 M75.75 138 C57.89 126.38, 44.99 114.92, 25.25 100 M75.75 138 C62.12 128.63, 49.08 118.58, 25.25 100 M25.25 100 C-1.73 80.62, 1.23 79.46, 25.25 60 M25.25 100 C-1.88 82.24, 0.87 78.74, 25.25 60 M25.25 60 C41.88 44.98, 62.76 30.23, 75.75 20 M25.25 60 C44.45 45.51, 60.93 32.25, 75.75 20 M75.75 20 C99.64 1.47, 101.74 -1.05, 126.25 20 M75.75 20 C101.73 -0.52, 101.51 -1.94, 126.25 20" stroke="#1e1e1e" stroke-width="2" fill="none"></path></g><g transform="translate(1150.5164299011694 484.0893990218095) rotate(0 36.040000915527344 34.5)"><text x="36.040000915527344" y="0" font-family="Helvetica, Segoe UI Emoji" font-size="20px" fill="#1e1e1e" text-anchor="middle" style="white-space: pre;" direction="ltr" dominant-baseline="text-before-edge">Light </text><text x="36.040000915527344" y="23" font-family="Helvetica, Segoe UI Emoji" font-size="20px" fill="#1e1e1e" text-anchor="middle" style="white-space: pre;" direction="ltr" dominant-baseline="text-before-edge">Source </text><text x="36.040000915527344" y="46" font-family="Helvetica, Segoe UI Emoji" font-size="20px" fill="#1e1e1e" text-anchor="middle" style="white-space: pre;" direction="ltr" dominant-baseline="text-before-edge">updated</text></g><g stroke-linecap="round" transform="translate(968.3064308166969 94.7777709960937) rotate(0 105 79)"><path d="M9.21 74.25 C9.21 74.25, 9.21 74.25, 9.21 74.25 M9.21 74.25 C9.21 74.25, 9.21 74.25, 9.21 74.25 M10 85.54 C17.95 76.39, 25.9 67.25, 42.14 48.56 M10 85.54 C18.31 75.98, 26.62 66.42, 42.14 48.56 M15.38 91.54 C38.13 65.37, 60.88 39.2, 73.77 24.37 M15.38 91.54 C27.69 77.38, 40 63.21, 73.77 24.37 M21.42 96.79 C45.02 69.64, 68.62 42.49, 99.49 6.98 M21.42 96.79 C44.17 70.61, 66.93 44.43, 99.49 6.98 M28.11 101.29 C49.63 76.53, 71.14 51.78, 110.77 6.19 M28.11 101.29 C59.51 65.16, 90.91 29.04, 110.77 6.19 M34.8 105.78 C63.82 72.39, 92.84 39.01, 117.47 10.69 M34.8 105.78 C64.79 71.29, 94.77 36.79, 117.47 10.69 M40.84 111.03 C66.62 81.37, 92.4 51.71, 124.16 15.18 M40.84 111.03 C70.02 77.46, 99.2 43.89, 124.16 15.18 M47.53 115.52 C68.5 91.4, 89.47 67.28, 130.85 19.67 M47.53 115.52 C80.12 78.04, 112.7 40.55, 130.85 19.67 M54.23 120.02 C79.85 90.54, 105.47 61.07, 136.89 24.92 M54.23 120.02 C78.08 92.58, 101.93 65.14, 136.89 24.92 M60.92 124.51 C91.25 89.62, 121.57 54.74, 143.59 29.42 M60.92 124.51 C87.02 94.48, 113.12 64.46, 143.59 29.42 M66.96 129.76 C90.89 102.23, 114.82 74.7, 149.62 34.66 M66.96 129.76 C86.1 107.73, 105.25 85.71, 149.62 34.66 M73.65 134.25 C95.48 109.14, 117.32 84.02, 156.32 39.16 M73.65 134.25 C106.41 96.57, 139.16 58.9, 156.32 39.16 M80.35 138.75 C99.23 117.02, 118.12 95.29, 162.35 44.41 M80.35 138.75 C112.05 102.27, 143.76 65.8, 162.35 44.41 M86.38 143.99 C104.2 123.5, 122.02 103, 169.05 48.9 M86.38 143.99 C112.2 114.3, 138.02 84.6, 169.05 48.9 M93.08 148.49 C123.37 113.64, 153.67 78.79, 175.09 54.15 M93.08 148.49 C112.02 126.7, 130.97 104.9, 175.09 54.15 M100.43 152.23 C124.67 124.33, 148.92 96.44, 181.78 58.64 M100.43 152.23 C121.92 127.51, 143.4 102.79, 181.78 58.64 M111.71 151.44 C134.43 125.31, 157.15 99.17, 187.82 63.89 M111.71 151.44 C127.89 132.83, 144.07 114.22, 187.82 63.89 M137.43 134.04 C154.16 114.8, 170.89 95.55, 194.51 68.38 M137.43 134.04 C152.97 116.18, 168.5 98.31, 194.51 68.38 M166.43 112.88 C175.26 102.72, 184.09 92.56, 199.89 74.39 M166.43 112.88 C174.78 103.28, 183.12 93.68, 199.89 74.39 M198.71 87.94 C200.49 85.89, 202.27 83.85, 203.31 82.66 M198.71 87.94 C199.99 86.47, 201.26 85.01, 203.31 82.66" stroke="#a5d8ff" stroke-width="1" fill="none"></path><path d="M131.25 20 C150.11 34.37, 168.98 48.74, 183.75 60 M131.25 20 C143.92 29.66, 156.59 39.31, 183.75 60 M183.75 60 C210 80, 210 80, 183.75 100 M183.75 60 C210 80, 210 80, 183.75 100 M183.75 100 C166.57 112.43, 149.4 124.86, 131.25 138 M183.75 100 C163.71 114.5, 143.67 129.01, 131.25 138 M131.25 138 C105 158, 105 158, 78.75 138 M131.25 138 C105 158, 105 158, 78.75 138 M78.75 138 C63.91 127.26, 49.07 116.51, 26.25 100 M78.75 138 C62 125.88, 45.25 113.75, 26.25 100 M26.25 100 C0 80, 0 80, 26.25 60 M26.25 100 C0 80, 0 80, 26.25 60 M26.25 60 C44.94 45.76, 63.64 31.52, 78.75 20 M26.25 60 C43.08 47.18, 59.91 34.35, 78.75 20 M78.75 20 C105 0, 105 0, 131.25 20 M78.75 20 C105 0, 105 0, 131.25 20" stroke="#1e1e1e" stroke-width="2" fill="none"></path></g><g transform="translate(1026.0164299011694 139.2777709960937) rotate(0 47.290000915527344 34.5)"><text x="47.290000915527344" y="0" font-family="Helvetica, Segoe UI Emoji" font-size="20px" fill="#1e1e1e" text-anchor="middle" style="white-space: pre;" direction="ltr" dominant-baseline="text-before-edge">Voxel </text><text x="47.290000915527344" y="23" font-family="Helvetica, Segoe UI Emoji" font-size="20px" fill="#1e1e1e" text-anchor="middle" style="white-space: pre;" direction="ltr" dominant-baseline="text-before-edge">Resolution</text><text x="47.290000915527344" y="46" font-family="Helvetica, Segoe UI Emoji" font-size="20px" fill="#1e1e1e" text-anchor="middle" style="white-space: pre;" direction="ltr" dominant-baseline="text-before-edge">updated</text></g><g stroke-linecap="round"><g transform="translate(986.9730974833636 566.6666666666665) rotate(0 -76.66666666666674 -38.333333333333314)"><path d="M0 0 C0 22.71, 0 45.42, 0 58.33 M0 0 C0 13.68, 0 27.36, 0 58.33 M0 58.33 C-31.87 58.68, -63.73 59.03, -153.33 60 M0 58.33 C-60.27 58.99, -120.54 59.64, -153.33 60 M-153.33 60 C-152.68 -17.19, -152.02 -94.39, -151.67 -136.67 M-153.33 60 C-152.87 5.67, -152.41 -48.66, -151.67 -136.67" stroke="#1e1e1e" stroke-width="1" fill="none"></path></g><g transform="translate(986.9730974833636 566.6666666666665) rotate(0 -76.66666666666674 -38.333333333333314)"><path d="M-143.32 -113.1 C-146.57 -122.28, -149.82 -131.45, -151.67 -136.67 M-143.32 -113.1 C-145.27 -118.63, -147.23 -124.16, -151.67 -136.67" stroke="#1e1e1e" stroke-width="1" fill="none"></path></g><g transform="translate(986.9730974833636 566.6666666666665) rotate(0 -76.66666666666674 -38.333333333333314)"><path d="M-160.42 -113.25 C-157.01 -122.36, -153.6 -131.48, -151.67 -136.67 M-160.42 -113.25 C-158.36 -118.74, -156.31 -124.23, -151.67 -136.67" stroke="#1e1e1e" stroke-width="1" fill="none"></path></g></g><mask></mask><g stroke-linecap="round"><g transform="translate(1065.4478906718696 94.48086988674302) rotate(0 -279.2373965942529 80.51913011325689)"><path d="M0 0 C-0.04 -23.6, -0.08 -47.2, -0.14 -81.15 M0 0 C-0.03 -20, -0.07 -40, -0.14 -81.15 M-0.14 -81.15 C-157.89 -80.21, -315.63 -79.26, -558.47 -77.81 M-0.14 -81.15 C-146.72 -80.27, -293.29 -79.4, -558.47 -77.81 M-558.47 -77.81 C-556.65 38.77, -554.83 155.36, -553.47 242.19 M-558.47 -77.81 C-557.42 -10.2, -556.36 57.41, -553.47 242.19" stroke="#1e1e1e" stroke-width="1" fill="none"></path></g><g transform="translate(1065.4478906718696 94.48086988674302) rotate(0 -279.2373965942529 80.51913011325689)"><path d="M-562.39 218.83 C-559.8 225.62, -557.21 232.41, -553.47 242.19 M-562.39 218.83 C-560.19 224.59, -558 230.34, -553.47 242.19" stroke="#1e1e1e" stroke-width="1" fill="none"></path></g><g transform="translate(1065.4478906718696 94.48086988674302) rotate(0 -279.2373965942529 80.51913011325689)"><path d="M-545.29 218.56 C-547.67 225.43, -550.05 232.3, -553.47 242.19 M-545.29 218.56 C-547.31 224.38, -549.33 230.21, -553.47 242.19" stroke="#1e1e1e" stroke-width="1" fill="none"></path></g></g><mask></mask><g stroke-linecap="round"><g transform="translate(1290.3064308166968 116.66666666666663) rotate(0 -121.66666666666663 -53.333333333333314)"><path d="M0 0 C-0.53 -34.24, -1.07 -68.48, -1.67 -106.67 M0 0 C-0.59 -37.87, -1.18 -75.74, -1.67 -106.67 M-1.67 -106.67 C-94.26 -106.03, -186.85 -105.39, -243.33 -105 M-1.67 -106.67 C-65.93 -106.22, -130.19 -105.78, -243.33 -105" stroke="#1e1e1e" stroke-width="1" fill="none"></path></g></g><mask></mask><g stroke-linecap="round"><g transform="translate(1185.3064308166968 596.6666666666665) rotate(0 -485.8333333333333 -26.66666666666663)"><path d="M0 0 C-0.48 29.59, -0.95 59.17, -1.67 103.33 M0 0 C-0.52 32.38, -1.04 64.76, -1.67 103.33 M-1.67 103.33 C-272.08 103.8, -542.5 104.26, -971.67 105 M-1.67 103.33 C-282.08 103.82, -562.49 104.3, -971.67 105 M-971.67 105 C-971.67 51.96, -971.67 -1.08, -971.67 -158.33 M-971.67 105 C-971.67 46.03, -971.67 -12.93, -971.67 -158.33" stroke="#1e1e1e" stroke-width="1" fill="none"></path></g><g transform="translate(1185.3064308166968 596.6666666666665) rotate(0 -485.8333333333333 -26.66666666666663)"><path d="M-963.12 -134.84 C-965.56 -141.57, -968.01 -148.29, -971.67 -158.33 M-963.12 -134.84 C-965.8 -142.2, -968.47 -149.56, -971.67 -158.33" stroke="#1e1e1e" stroke-width="1" fill="none"></path></g><g transform="translate(1185.3064308166968 596.6666666666665) rotate(0 -485.8333333333333 -26.66666666666663)"><path d="M-980.22 -134.84 C-977.77 -141.57, -975.32 -148.29, -971.67 -158.33 M-980.22 -134.84 C-977.54 -142.2, -974.86 -149.56, -971.67 -158.33" stroke="#1e1e1e" stroke-width="1" fill="none"></path></g></g><mask></mask><g stroke-linecap="round"><g transform="translate(1381.9730974833637 461.6666666666665) rotate(0 -114.99999999999989 -41.666666666666686)"><path d="M0 0 C0 -27.54, 0 -55.08, 0 -83.33 M0 0 C0 -19.51, 0 -39.02, 0 -83.33 M0 -83.33 C-55.08 -82.93, -110.17 -82.54, -230 -81.67 M0 -83.33 C-79.8 -82.76, -159.6 -82.18, -230 -81.67" stroke="#1e1e1e" stroke-width="1" fill="none"></path></g></g><mask></mask><g stroke-linecap="round"><g transform="translate(1383.6397641500303 574.9999999999999) rotate(0 -100.83333333333337 62.5)"><path d="M0 0 C0 40.7, 0 81.4, 0 125 M0 0 C0 32.04, 0 64.08, 0 125 M0 125 C-59.34 125, -118.68 125, -201.67 125 M0 125 C-58.66 125, -117.32 125, -201.67 125" stroke="#1e1e1e" stroke-width="1" fill="none"></path></g></g><mask></mask><g stroke-linecap="round" transform="translate(995.3064308166971 331.6666666666665) rotate(0 76.66666666666663 48.33333333333337)"><path d="M6.02 46.31 C6.02 46.31, 6.02 46.31, 6.02 46.31 M6.02 46.31 C6.02 46.31, 6.02 46.31, 6.02 46.31 M9.43 54.57 C15.16 47.98, 20.9 41.39, 29.77 31.18 M9.43 54.57 C15.07 48.09, 20.71 41.6, 29.77 31.18 M16.13 59.07 C30.95 42.01, 45.77 24.96, 53.52 16.05 M16.13 59.07 C30.97 41.99, 45.82 24.91, 53.52 16.05 M22.82 63.56 C34.89 49.67, 46.96 35.79, 74.65 3.94 M22.82 63.56 C37.06 47.18, 51.3 30.8, 74.65 3.94 M30.17 67.3 C47.94 46.85, 65.72 26.41, 83.97 5.41 M30.17 67.3 C43.48 51.99, 56.79 36.67, 83.97 5.41 M36.86 71.79 C50.31 56.33, 63.75 40.86, 91.32 9.15 M36.86 71.79 C56.11 49.66, 75.35 27.52, 91.32 9.15 M43.56 76.29 C65.01 51.61, 86.47 26.93, 98.01 13.65 M43.56 76.29 C62.49 54.51, 81.43 32.72, 98.01 13.65 M50.91 80.03 C70.86 57.07, 90.82 34.11, 104.7 18.14 M50.91 80.03 C62.64 66.53, 74.37 53.03, 104.7 18.14 M57.6 84.52 C79.08 59.81, 100.56 35.1, 111.4 22.63 M57.6 84.52 C68.37 72.13, 79.15 59.73, 111.4 22.63 M64.95 88.26 C78.77 72.36, 92.59 56.46, 118.75 26.37 M64.95 88.26 C80.76 70.07, 96.57 51.88, 118.75 26.37 M71.64 92.75 C88.47 73.39, 105.31 54.03, 125.44 30.87 M71.64 92.75 C86.59 75.56, 101.54 58.36, 125.44 30.87 M82.93 91.96 C95.79 77.17, 108.64 62.38, 132.13 35.36 M82.93 91.96 C94.06 79.16, 105.2 66.35, 132.13 35.36 M104.71 79.1 C116.86 65.12, 129.01 51.15, 138.83 39.86 M104.71 79.1 C115.75 66.4, 126.8 53.7, 138.83 39.86 M127.15 65.48 C133.49 58.18, 139.84 50.89, 145.52 44.35 M127.15 65.48 C134.15 57.43, 141.15 49.38, 145.52 44.35" stroke="#a5d8ff" stroke-width="1" fill="none"></path><path d="M96.25 12.25 C104.36 17.5, 112.48 22.76, 134.08 36.75 M96.25 12.25 C111.34 22.02, 126.42 31.79, 134.08 36.75 M134.08 36.75 C153.33 49, 153.33 49, 134.08 61.25 M134.08 36.75 C153.33 49, 153.33 49, 134.08 61.25 M134.08 61.25 C120.78 69.39, 107.48 77.54, 96.25 84.42 M134.08 61.25 C124.97 66.83, 115.86 72.41, 96.25 84.42 M96.25 84.42 C77 96.67, 77 96.67, 57.75 84.42 M96.25 84.42 C77 96.67, 77 96.67, 57.75 84.42 M57.75 84.42 C47.71 78.37, 37.66 72.33, 19.25 61.25 M57.75 84.42 C44.84 76.65, 31.93 68.88, 19.25 61.25 M19.25 61.25 C0 49, 0 49, 19.25 36.75 M19.25 61.25 C0 49, 0 49, 19.25 36.75 M19.25 36.75 C31.76 28.79, 44.28 20.82, 57.75 12.25 M19.25 36.75 C27.18 31.7, 35.11 26.66, 57.75 12.25 M57.75 12.25 C77 0, 77 0, 96.25 12.25 M57.75 12.25 C77 0, 77 0, 96.25 12.25" stroke="#1e1e1e" stroke-width="2" fill="none"></path></g><g transform="translate(1046.9297650655576 368.3333333333332) rotate(0 25.209999084472656 11.5)"><text x="25.209999084472656" y="0" font-family="Helvetica, Segoe UI Emoji" font-size="20px" fill="#1e1e1e" text-anchor="middle" style="white-space: pre;" direction="ltr" dominant-baseline="text-before-edge">Event</text></g><g stroke-linecap="round"><g transform="translate(931.9730974833636 383.33333333333326) rotate(0 34.16666666666663 0)"><path d="M0 0 C11.39 0, 56.94 0, 68.33 0 M0 0 C11.39 0, 56.94 0, 68.33 0" stroke="#1e1e1e" stroke-width="2" fill="none"></path></g></g><mask></mask><g stroke-linecap="round"><g transform="translate(1291.9730974833637 273.33333333333326) rotate(0 -70.83333333333348 54.16666666666663)"><path d="M0 0 C0.65 41.01, 1.3 82.03, 1.67 105 M0 0 C0.36 22.38, 0.71 44.76, 1.67 105 M1.67 105 C-35.31 105.85, -72.29 106.7, -143.33 108.33 M1.67 105 C-43.2 106.03, -88.06 107.06, -143.33 108.33" stroke="#1e1e1e" stroke-width="2" fill="none"></path></g></g><mask></mask><g stroke-linecap="round"><g transform="translate(1071.9730974833633 253.33333333333314) rotate(0 0 38.33333333333337)"><path d="M0 0 C0 12.78, 0 63.89, 0 76.67 M0 0 C0 12.78, 0 63.89, 0 76.67" stroke="#1e1e1e" stroke-width="2" fill="none"></path></g></g><mask></mask><g stroke-linecap="round"><g transform="translate(1186.9730974833633 441.6666666666665) rotate(0 -0.8333333333332575 -30)"><path d="M0 0 C-0.64 -22.94, -1.27 -45.88, -1.67 -60 M0 0 C-0.36 -13.02, -0.72 -26.04, -1.67 -60" stroke="#1e1e1e" stroke-width="2" fill="none"></path></g></g><mask></mask><g stroke-linecap="round"><g transform="translate(983.6397641500301 458.33333333333326) rotate(0 30.960672332226977 -23.34249327311818)"><path d="M0 0 C21.18 0.5, 42.35 1, 61.77 1.46 M0 0 C12.64 0.3, 25.29 0.6, 61.77 1.46 M61.77 1.46 C61.82 -15.24, 61.87 -31.93, 61.92 -48.15 M61.77 1.46 C61.82 -13.74, 61.86 -28.95, 61.92 -48.15" stroke="#1e1e1e" stroke-width="2" fill="none"></path></g></g><mask></mask></svg>